<?xml version="1.0" encoding="UTF-8" standalone="no"?><!DOCTYPE svg PUBLIC "-//W3C//DTD SVG 1.1//EN" "http://www.w3.org/Graphics/SVG/1.1/DTD/svg11.dtd"><svg width="100%" height="100%" viewBox="0 0 1452 1452" version="1.1" xmlns="http://www.w3.org/2000/svg" xmlns:xlink="http://www.w3.org/1999/xlink" xml:space="preserve" xmlns:serif="http://www.serif.com/" style="fill-rule:evenodd;clip-rule:evenodd;stroke-linejoin:round;stroke-miterlimit:2;"><rect x="0" y="0" width="1451.34" height="1451.34" style="fill:#fff;"/><path d="M515.407,445.319c-0,-115.347 94.916,-210.262 210.262,-210.262c115.347,-0 210.263,94.915 210.263,210.262c-0,115.347 -94.916,210.262 -210.263,210.262c-115.346,0 -210.262,-94.915 -210.262,-210.262Zm-175.172,659.056c3.257,-209.177 176.232,-379.479 385.434,-379.479c209.203,-0 382.178,170.302 385.435,379.479c0.248,13.893 -7.79,26.677 -20.419,32.474c-114.511,52.503 -239.042,79.603 -365.016,79.432c-130.176,0 -253.857,-28.409 -365.015,-79.432c-12.629,-5.797 -20.667,-18.581 -20.419,-32.474Z"/></svg>